<?xml version="1.0" encoding="UTF-8" standalone="no"?>
<!DOCTYPE svg PUBLIC "-//W3C//DTD SVG 1.1//EN"
 "http://www.w3.org/Graphics/SVG/1.1/DTD/svg11.dtd">
<!-- Generated by graphviz version 2.40.1 (20161225.0304)
 -->
<!-- Title: G Pages: 1 -->
<svg width="984pt" height="534pt"
 viewBox="0.00 0.00 984.06 534.00" xmlns="http://www.w3.org/2000/svg" xmlns:xlink="http://www.w3.org/1999/xlink">
<g id="graph0" class="graph" transform="scale(1 1) rotate(0) translate(4 530)">
<title>G</title>
<polygon fill="#ffffff" stroke="transparent" points="-4,4 -4,-530 980.0577,-530 980.0577,4 -4,4"/>
<!-- A0 -->
<g id="node1" class="node">
<title>A0</title>
<ellipse fill="none" stroke="#000000" cx="666.0547" cy="-515" rx="11" ry="11"/>
</g>
<!-- A1 -->
<g id="node2" class="node">
<title>A1</title>
<path fill="none" stroke="#000000" d="M713.0296,-456C713.0296,-456 619.0797,-456 619.0797,-456 613.0797,-456 607.0797,-450 607.0797,-444 607.0797,-444 607.0797,-432 607.0797,-432 607.0797,-426 613.0797,-420 619.0797,-420 619.0797,-420 713.0296,-420 713.0296,-420 719.0296,-420 725.0296,-426 725.0296,-432 725.0296,-432 725.0296,-444 725.0296,-444 725.0296,-450 719.0296,-456 713.0296,-456"/>
<text text-anchor="middle" x="666.0547" y="-435" font-family="Helvetica,sans-Serif" font-size="10.00" fill="#000000">{PedeDecisaoInicio}</text>
</g>
<!-- A0&#45;&gt;A1 -->
<g id="edge1" class="edge">
<title>A0&#45;&gt;A1</title>
<path fill="none" stroke="#000000" d="M666.0547,-503.9678C666.0547,-494.124 666.0547,-479.2813 666.0547,-466.1664"/>
<polygon fill="#000000" stroke="#000000" points="666.0547,-456.1474 670.5548,-466.1473 666.0547,-461.1474 666.0548,-466.1474 666.0548,-466.1474 666.0548,-466.1474 666.0547,-461.1474 661.5548,-466.1474 666.0547,-456.1474 666.0547,-456.1474"/>
<text text-anchor="middle" x="751.6342" y="-477" font-family="Helvetica,sans-Serif" font-size="10.00" fill="#000000">[new QuatroEmLinhaMaquinaEstados]</text>
</g>
<!-- A2 -->
<g id="node3" class="node">
<title>A2</title>
<path fill="none" stroke="#000000" d="M544.0387,-372C544.0387,-372 450.0707,-372 450.0707,-372 444.0707,-372 438.0707,-366 438.0707,-360 438.0707,-360 438.0707,-348 438.0707,-348 438.0707,-342 444.0707,-336 450.0707,-336 450.0707,-336 544.0387,-336 544.0387,-336 550.0387,-336 556.0387,-342 556.0387,-348 556.0387,-348 556.0387,-360 556.0387,-360 556.0387,-366 550.0387,-372 544.0387,-372"/>
<text text-anchor="middle" x="497.0547" y="-351" font-family="Helvetica,sans-Serif" font-size="10.00" fill="#000000">{PedeConfiguracao}</text>
</g>
<!-- A1&#45;&gt;A2 -->
<g id="edge2" class="edge">
<title>A1&#45;&gt;A2</title>
<path fill="none" stroke="#000000" d="M629.7999,-419.9799C604.2687,-407.2898 569.9004,-390.2073 542.5312,-376.6037"/>
<polygon fill="#000000" stroke="#000000" points="533.5407,-372.135 544.4984,-372.5563 538.0181,-374.3605 542.4955,-376.586 542.4955,-376.586 542.4955,-376.586 538.0181,-374.3605 540.4926,-380.6157 533.5407,-372.135 533.5407,-372.135"/>
<text text-anchor="middle" x="617.7242" y="-393" font-family="Helvetica,sans-Serif" font-size="10.00" fill="#000000">[iniciarJogo]</text>
</g>
<!-- A3 -->
<g id="node4" class="node">
<title>A3</title>
<path fill="none" stroke="#000000" d="M167.4887,-288C167.4887,-288 64.6207,-288 64.6207,-288 58.6207,-288 52.6207,-282 52.6207,-276 52.6207,-276 52.6207,-264 52.6207,-264 52.6207,-258 58.6207,-252 64.6207,-252 64.6207,-252 167.4887,-252 167.4887,-252 173.4887,-252 179.4887,-258 179.4887,-264 179.4887,-264 179.4887,-276 179.4887,-276 179.4887,-282 173.4887,-288 167.4887,-288"/>
<text text-anchor="middle" x="116.0547" y="-267" font-family="Helvetica,sans-Serif" font-size="10.00" fill="#000000">{PedeDecisaoJogada}</text>
</g>
<!-- A1&#45;&gt;A3 -->
<g id="edge3" class="edge">
<title>A1&#45;&gt;A3</title>
<path fill="none" stroke="#000000" d="M607.0527,-434.5319C514.7591,-428.7633 340.5376,-416.3966 280.0547,-402 244.5839,-393.557 233.4226,-393.1161 203.6977,-372 174.7962,-351.4688 149.3459,-319.4083 133.4206,-296.7186"/>
<polygon fill="#000000" stroke="#000000" points="127.5964,-288.2271 136.9637,-293.9284 130.4246,-292.3504 133.2527,-296.4737 133.2527,-296.4737 133.2527,-296.4737 130.4246,-292.3504 129.5417,-299.0191 127.5964,-288.2271 127.5964,-288.2271"/>
<text text-anchor="middle" x="238.2332" y="-351" font-family="Helvetica,sans-Serif" font-size="10.00" fill="#000000">[continuarJogo]</text>
</g>
<!-- A4 -->
<g id="node5" class="node">
<title>A4</title>
<path fill="none" stroke="#000000" d="M609.7541,-120C609.7541,-120 534.3552,-120 534.3552,-120 528.3552,-120 522.3552,-114 522.3552,-108 522.3552,-108 522.3552,-96 522.3552,-96 522.3552,-90 528.3552,-84 534.3552,-84 534.3552,-84 609.7541,-84 609.7541,-84 615.7541,-84 621.7541,-90 621.7541,-96 621.7541,-96 621.7541,-108 621.7541,-108 621.7541,-114 615.7541,-120 609.7541,-120"/>
<text text-anchor="middle" x="572.0547" y="-99" font-family="Helvetica,sans-Serif" font-size="10.00" fill="#000000">{AssisteJogada}</text>
</g>
<!-- A1&#45;&gt;A4 -->
<g id="edge4" class="edge">
<title>A1&#45;&gt;A4</title>
<path fill="none" stroke="#000000" d="M708.5532,-419.9743C733.8474,-406.0978 761.0547,-384.1616 761.0547,-354 761.0547,-354 761.0547,-354 761.0547,-186 761.0547,-156.452 740.5989,-152.852 715.0547,-138 689.8367,-123.3377 658.7382,-114.5957 631.9896,-109.4086"/>
<polygon fill="#000000" stroke="#000000" points="621.9723,-107.5897 632.6154,-104.9487 626.8919,-108.483 631.8115,-109.3763 631.8115,-109.3763 631.8115,-109.3763 626.8919,-108.483 631.0075,-113.8039 621.9723,-107.5897 621.9723,-107.5897"/>
<text text-anchor="middle" x="786.3352" y="-267" font-family="Helvetica,sans-Serif" font-size="10.00" fill="#000000">[verReplay]</text>
</g>
<!-- A2&#45;&gt;A1 -->
<g id="edge14" class="edge">
<title>A2&#45;&gt;A1</title>
<path fill="none" stroke="#000000" d="M508.3094,-372.3446C515.394,-382.4594 525.3933,-394.4594 537.0517,-402 555.0047,-413.6119 576.7044,-421.5267 597.1429,-426.9021"/>
<polygon fill="#000000" stroke="#000000" points="607.0531,-429.3421 596.2673,-431.3209 602.1981,-428.1467 597.3431,-426.9513 597.3431,-426.9513 597.3431,-426.9513 602.1981,-428.1467 598.4189,-422.5818 607.0531,-429.3421 607.0531,-429.3421"/>
<text text-anchor="middle" x="551.0562" y="-393" font-family="Helvetica,sans-Serif" font-size="10.00" fill="#000000">[voltar]</text>
</g>
<!-- A2&#45;&gt;A2 -->
<g id="edge12" class="edge">
<title>A2&#45;&gt;A2</title>
<path fill="none" stroke="#000000" d="M555.9353,-361.4131C566.451,-360.4495 573.7962,-357.9785 573.7962,-354 573.7962,-351.4513 570.7817,-349.5212 565.8504,-348.2098"/>
<polygon fill="#000000" stroke="#000000" points="555.9353,-346.5869 566.5309,-343.7614 560.8697,-347.3946 565.804,-348.2023 565.804,-348.2023 565.804,-348.2023 560.8697,-347.3946 565.0771,-352.6432 555.9353,-346.5869 555.9353,-346.5869"/>
<text text-anchor="middle" x="614.9182" y="-351" font-family="Helvetica,sans-Serif" font-size="10.00" fill="#000000">[adicionarJogador]</text>
</g>
<!-- A2&#45;&gt;A3 -->
<g id="edge13" class="edge">
<title>A2&#45;&gt;A3</title>
<path fill="none" stroke="#000000" d="M463.9881,-335.7819C443.7874,-325.4476 417.1021,-313.1819 392.0547,-306 325.1492,-286.8161 246.16,-277.8231 189.8642,-273.6264"/>
<polygon fill="#000000" stroke="#000000" points="179.6247,-272.8972 189.9191,-269.119 184.6121,-273.2524 189.5994,-273.6077 189.5994,-273.6077 189.5994,-273.6077 184.6121,-273.2524 189.2797,-278.0963 179.6247,-272.8972 179.6247,-272.8972"/>
<text text-anchor="middle" x="466.1767" y="-309" font-family="Helvetica,sans-Serif" font-size="10.00" fill="#000000">[adicionarJogador]</text>
</g>
<!-- A3&#45;&gt;A1 -->
<g id="edge24" class="edge">
<title>A3&#45;&gt;A1</title>
<path fill="none" stroke="#000000" d="M161.6527,-288.047C217.1895,-309.6513 314.1156,-346.1487 399.0517,-372 451.6456,-388.0076 465.6882,-388.7948 519.0547,-402 544.4982,-408.2958 572.4335,-415.1514 597.0552,-421.1746"/>
<polygon fill="#000000" stroke="#000000" points="607.0283,-423.6131 596.2456,-425.6091 602.1714,-422.4255 597.3145,-421.2379 597.3145,-421.2379 597.3145,-421.2379 602.1714,-422.4255 598.3833,-416.8667 607.0283,-423.6131 607.0283,-423.6131"/>
<text text-anchor="middle" x="414.0562" y="-351" font-family="Helvetica,sans-Serif" font-size="10.00" fill="#000000">[voltar]</text>
</g>
<!-- A3&#45;&gt;A2 -->
<g id="edge21" class="edge">
<title>A3&#45;&gt;A2</title>
<path fill="none" stroke="#000000" d="M179.6721,-278.049C217.5109,-283.7894 266.1515,-292.8475 308.0547,-306 320.4526,-309.8914 322.3834,-313.9053 334.7157,-318 364.7382,-327.9685 398.803,-335.9991 427.9488,-341.9243"/>
<polygon fill="#000000" stroke="#000000" points="438.0381,-343.9321 427.3521,-346.3938 433.1343,-342.9562 428.2304,-341.9803 428.2304,-341.9803 428.2304,-341.9803 433.1343,-342.9562 429.1087,-337.5668 438.0381,-343.9321 438.0381,-343.9321"/>
<text text-anchor="middle" x="361.7242" y="-309" font-family="Helvetica,sans-Serif" font-size="10.00" fill="#000000">[iniciarJogo]</text>
</g>
<!-- A3&#45;&gt;A3 -->
<g id="edge15" class="edge">
<title>A3&#45;&gt;A3</title>
<path fill="none" stroke="#000000" d="M179.587,-271.8298C190.1991,-271.5738 197.5217,-270.9639 197.5217,-270 197.5217,-269.3976 194.6613,-268.9334 189.9252,-268.6075"/>
<polygon fill="#000000" stroke="#000000" points="179.587,-268.1702 189.7683,-264.0969 184.5825,-268.3815 189.5781,-268.5929 189.5781,-268.5929 189.5781,-268.5929 184.5825,-268.3815 189.3878,-273.0889 179.587,-268.1702 179.587,-268.1702"/>
<text text-anchor="middle" x="223.6362" y="-267" font-family="Helvetica,sans-Serif" font-size="10.00" fill="#000000">[jogarFicha]</text>
</g>
<!-- A3&#45;&gt;A3 -->
<g id="edge18" class="edge">
<title>A3&#45;&gt;A3</title>
<path fill="none" stroke="#000000" d="M179.6255,-273.8158C215.0024,-274.3584 249.7507,-273.0864 249.7507,-270 249.7507,-267.215 221.4578,-265.9074 189.9401,-266.0771"/>
<polygon fill="#000000" stroke="#000000" points="179.6255,-266.1842 189.5782,-261.5805 184.6252,-266.1322 189.625,-266.0803 189.625,-266.0803 189.625,-266.0803 184.6252,-266.1322 189.6717,-270.5801 179.6255,-266.1842 179.6255,-266.1842"/>
<text text-anchor="middle" x="280.0452" y="-267" font-family="Helvetica,sans-Serif" font-size="10.00" fill="#000000">[undoJogada]</text>
</g>
<!-- A3&#45;&gt;A3 -->
<g id="edge19" class="edge">
<title>A3&#45;&gt;A3</title>
<path fill="none" stroke="#000000" d="M179.7161,-275.1184C238.0547,-277.0817 310.3397,-275.3756 310.3397,-270 310.3397,-264.9289 246.0113,-263.1233 189.7477,-264.5833"/>
<polygon fill="#000000" stroke="#000000" points="179.7161,-264.8816 189.5779,-260.0863 184.7139,-264.733 189.7117,-264.5843 189.7117,-264.5843 189.7117,-264.5843 184.7139,-264.733 189.8455,-269.0823 179.7161,-264.8816 179.7161,-264.8816"/>
<text text-anchor="middle" x="355.3462" y="-267" font-family="Helvetica,sans-Serif" font-size="10.00" fill="#000000">[jogarFichaEspecial]</text>
</g>
<!-- A3&#45;&gt;A3 -->
<g id="edge22" class="edge">
<title>A3&#45;&gt;A3</title>
<path fill="none" stroke="#000000" d="M179.5263,-275.9063C265.8351,-279.8438 400.3527,-277.875 400.3527,-270 400.3527,-262.4249 275.8865,-260.3148 189.5874,-263.6696"/>
<polygon fill="#000000" stroke="#000000" points="179.5263,-264.0938 189.3278,-259.1764 184.5219,-263.8831 189.5174,-263.6724 189.5174,-263.6724 189.5174,-263.6724 184.5219,-263.8831 189.707,-268.1684 179.5263,-264.0938 179.5263,-264.0938"/>
<text text-anchor="middle" x="434.5312" y="-267" font-family="Helvetica,sans-Serif" font-size="10.00" fill="#000000">[continuarJogo]</text>
</g>
<!-- A3&#45;&gt;A4 -->
<g id="edge23" class="edge">
<title>A3&#45;&gt;A4</title>
<path fill="none" stroke="#000000" d="M179.4902,-265.8321C263.5918,-259.8102 403.6942,-247.8652 423.0547,-234 449.4705,-215.082 432.3014,-191.7316 454.4937,-168 471.6298,-149.6753 495.0258,-135.1252 516.4355,-124.4014"/>
<polygon fill="#000000" stroke="#000000" points="525.4654,-120.0399 518.4179,-128.4414 520.9631,-122.2146 516.4607,-124.3893 516.4607,-124.3893 516.4607,-124.3893 520.9631,-122.2146 514.5035,-120.3372 525.4654,-120.0399 525.4654,-120.0399"/>
<text text-anchor="middle" x="479.3352" y="-183" font-family="Helvetica,sans-Serif" font-size="10.00" fill="#000000">[verReplay]</text>
</g>
<!-- A5 -->
<g id="node6" class="node">
<title>A5</title>
<path fill="none" stroke="#000000" d="M532.5667,-36C532.5667,-36 483.5427,-36 483.5427,-36 477.5427,-36 471.5427,-30 471.5427,-24 471.5427,-24 471.5427,-12 471.5427,-12 471.5427,-6 477.5427,0 483.5427,0 483.5427,0 532.5667,0 532.5667,0 538.5667,0 544.5667,-6 544.5667,-12 544.5667,-12 544.5667,-24 544.5667,-24 544.5667,-30 538.5667,-36 532.5667,-36"/>
<text text-anchor="middle" x="508.0547" y="-15" font-family="Helvetica,sans-Serif" font-size="10.00" fill="#000000">{FimJogo}</text>
</g>
<!-- A3&#45;&gt;A5 -->
<g id="edge16" class="edge">
<title>A3&#45;&gt;A5</title>
<path fill="none" stroke="#000000" d="M86.0813,-251.8433C78.4891,-246.5671 70.6302,-240.4678 64.0547,-234 31.3044,-201.7859 17.8844,-193.7342 3.8257,-150 -10.8378,-104.3847 21.1651,-78.263 64.0547,-54 98.0103,-34.791 354.2812,-23.4976 461.3113,-19.5755"/>
<polygon fill="#000000" stroke="#000000" points="471.4934,-19.2082 461.6621,-24.0659 466.4966,-19.3885 461.4999,-19.5688 461.4999,-19.5688 461.4999,-19.5688 466.4966,-19.3885 461.3376,-15.0718 471.4934,-19.2082 471.4934,-19.2082"/>
<text text-anchor="middle" x="30.1692" y="-141" font-family="Helvetica,sans-Serif" font-size="10.00" fill="#000000">[jogarFicha]</text>
</g>
<!-- A3&#45;&gt;A5 -->
<g id="edge20" class="edge">
<title>A3&#45;&gt;A5</title>
<path fill="none" stroke="#000000" d="M116.8361,-251.7976C117.8718,-242.433 120.1459,-231.1049 125.0547,-222 141.4627,-191.5659 152.492,-187.4841 181.0547,-168 273.198,-105.144 395.9129,-56.9889 461.707,-33.6118"/>
<polygon fill="#000000" stroke="#000000" points="471.3777,-30.2089 463.4383,-37.7731 466.6612,-31.8686 461.9446,-33.5282 461.9446,-33.5282 461.9446,-33.5282 466.6612,-31.8686 460.4509,-29.2834 471.3777,-30.2089 471.3777,-30.2089"/>
<text text-anchor="middle" x="247.6657" y="-141" font-family="Helvetica,sans-Serif" font-size="10.00" fill="#000000">[desistir]</text>
</g>
<!-- A6 -->
<g id="node7" class="node">
<title>A6</title>
<path fill="none" stroke="#000000" d="M271.6326,-204C271.6326,-204 202.4767,-204 202.4767,-204 196.4767,-204 190.4767,-198 190.4767,-192 190.4767,-192 190.4767,-180 190.4767,-180 190.4767,-174 196.4767,-168 202.4767,-168 202.4767,-168 271.6326,-168 271.6326,-168 277.6326,-168 283.6326,-174 283.6326,-180 283.6326,-180 283.6326,-192 283.6326,-192 283.6326,-198 277.6326,-204 271.6326,-204"/>
<text text-anchor="middle" x="237.0547" y="-183" font-family="Helvetica,sans-Serif" font-size="10.00" fill="#000000">{JogaMinijogo}</text>
</g>
<!-- A3&#45;&gt;A6 -->
<g id="edge17" class="edge">
<title>A3&#45;&gt;A6</title>
<path fill="none" stroke="#000000" d="M179.7167,-263.9751C242.218,-257.402 329.6765,-246.1793 340.0547,-234 357.6805,-213.3153 326.5156,-200.9931 293.9639,-194.023"/>
<polygon fill="#000000" stroke="#000000" points="283.8697,-192.0283 294.5523,-189.5523 288.7748,-192.9976 293.68,-193.9669 293.68,-193.9669 293.68,-193.9669 288.7748,-192.9976 292.8076,-198.3816 283.8697,-192.0283 283.8697,-192.0283"/>
<text text-anchor="middle" x="382.4467" y="-225" font-family="Helvetica,sans-Serif" font-size="10.00" fill="#000000">[aceitarMinijogo]</text>
</g>
<!-- A4&#45;&gt;A1 -->
<g id="edge6" class="edge">
<title>A4&#45;&gt;A1</title>
<path fill="none" stroke="#000000" d="M595.7502,-120.08C621.1907,-141.2289 659.8666,-178.8859 674.0547,-222 695.3037,-286.5708 682.475,-367.9137 673.1564,-409.9609"/>
<polygon fill="#000000" stroke="#000000" points="670.8857,-419.7702 668.7569,-409.0129 672.0133,-414.899 673.141,-410.0278 673.141,-410.0278 673.141,-410.0278 672.0133,-414.899 677.525,-411.0426 670.8857,-419.7702 670.8857,-419.7702"/>
<text text-anchor="middle" x="705.6162" y="-267" font-family="Helvetica,sans-Serif" font-size="10.00" fill="#000000">[avancar]</text>
</g>
<!-- A4&#45;&gt;A1 -->
<g id="edge11" class="edge">
<title>A4&#45;&gt;A1</title>
<path fill="none" stroke="#000000" d="M621.7773,-104.9329C710.7673,-111.5543 888.0547,-131.5753 888.0547,-186 888.0547,-354 888.0547,-354 888.0547,-354 888.0547,-387.2189 800.0045,-411.9129 734.8085,-425.6443"/>
<polygon fill="#000000" stroke="#000000" points="724.9638,-427.6719 733.8503,-421.2471 729.861,-426.6632 734.7582,-425.6546 734.7582,-425.6546 734.7582,-425.6546 729.861,-426.6632 735.666,-430.062 724.9638,-427.6719 724.9638,-427.6719"/>
<text text-anchor="middle" x="903.0562" y="-267" font-family="Helvetica,sans-Serif" font-size="10.00" fill="#000000">[voltar]</text>
</g>
<!-- A4&#45;&gt;A2 -->
<g id="edge8" class="edge">
<title>A4&#45;&gt;A2</title>
<path fill="none" stroke="#000000" d="M585.1129,-120.0161C593.4907,-132.7314 603.6042,-150.5467 608.0547,-168 621.3221,-220.0302 622.996,-242.7722 594.0547,-288 582.6489,-305.8243 564.5254,-320.0513 547.0151,-330.6652"/>
<polygon fill="#000000" stroke="#000000" points="537.953,-335.8861 544.3714,-326.9948 542.2854,-333.3901 546.6178,-330.894 546.6178,-330.894 546.6178,-330.894 542.2854,-333.3901 548.8643,-334.7932 537.953,-335.8861 537.953,-335.8861"/>
<text text-anchor="middle" x="643.7242" y="-225" font-family="Helvetica,sans-Serif" font-size="10.00" fill="#000000">[iniciarJogo]</text>
</g>
<!-- A4&#45;&gt;A3 -->
<g id="edge9" class="edge">
<title>A4&#45;&gt;A3</title>
<path fill="none" stroke="#000000" d="M564.4663,-120.2616C550.2592,-151.5309 516.2827,-213.8996 464.0547,-234 415.5938,-252.6506 276.6306,-262.4469 189.674,-266.8967"/>
<polygon fill="#000000" stroke="#000000" points="179.5986,-267.4003 189.3614,-262.4066 184.5923,-267.1506 189.5861,-266.901 189.5861,-266.901 189.5861,-266.901 184.5923,-267.1506 189.8108,-271.3954 179.5986,-267.4003 179.5986,-267.4003"/>
<text text-anchor="middle" x="570.2332" y="-183" font-family="Helvetica,sans-Serif" font-size="10.00" fill="#000000">[continuarJogo]</text>
</g>
<!-- A4&#45;&gt;A4 -->
<g id="edge5" class="edge">
<title>A4&#45;&gt;A4</title>
<path fill="none" stroke="#000000" d="M621.7574,-105.8104C632.2947,-105.4234 639.9042,-104.1533 639.9042,-102 639.9042,-100.6205 636.7813,-99.6035 631.7663,-98.949"/>
<polygon fill="#000000" stroke="#000000" points="621.7574,-98.1896 632.0692,-94.4591 626.7431,-98.5679 631.7287,-98.9462 631.7287,-98.9462 631.7287,-98.9462 626.7431,-98.5679 631.3883,-103.4333 621.7574,-98.1896 621.7574,-98.1896"/>
<text text-anchor="middle" x="660.4657" y="-99" font-family="Helvetica,sans-Serif" font-size="10.00" fill="#000000">[avancar]</text>
</g>
<!-- A4&#45;&gt;A4 -->
<g id="edge10" class="edge">
<title>A4&#45;&gt;A4</title>
<path fill="none" stroke="#000000" d="M621.9734,-109.5246C651.5693,-110.8656 681.0272,-108.3574 681.0272,-102 681.0272,-96.3628 657.8653,-93.752 631.9835,-94.1678"/>
<polygon fill="#000000" stroke="#000000" points="621.9734,-94.4754 631.8305,-89.6703 626.9711,-94.3218 631.9687,-94.1682 631.9687,-94.1682 631.9687,-94.1682 626.9711,-94.3218 632.107,-98.6661 621.9734,-94.4754 621.9734,-94.4754"/>
<text text-anchor="middle" x="706.3077" y="-99" font-family="Helvetica,sans-Serif" font-size="10.00" fill="#000000">[verReplay]</text>
</g>
<!-- A4&#45;&gt;A5 -->
<g id="edge7" class="edge">
<title>A4&#45;&gt;A5</title>
<path fill="none" stroke="#000000" d="M526.6909,-83.9944C519.6227,-79.2003 513.2439,-73.2699 508.9317,-66 505.4715,-60.1666 504.1225,-53.1918 503.8922,-46.3905"/>
<polygon fill="#000000" stroke="#000000" points="504.3083,-36.0348 508.4031,-46.2074 504.1075,-41.0307 503.9067,-46.0267 503.9067,-46.0267 503.9067,-46.0267 504.1075,-41.0307 499.4103,-45.846 504.3083,-36.0348 504.3083,-36.0348"/>
<text text-anchor="middle" x="528.6162" y="-57" font-family="Helvetica,sans-Serif" font-size="10.00" fill="#000000">[avancar]</text>
</g>
<!-- A5&#45;&gt;A1 -->
<g id="edge33" class="edge">
<title>A5&#45;&gt;A1</title>
<path fill="none" stroke="#000000" d="M544.645,-21.1559C649.9138,-30.7219 946.0547,-61.2538 946.0547,-102 946.0547,-354 946.0547,-354 946.0547,-354 946.0547,-397.9084 818.1355,-420.8363 735.2208,-431.0858"/>
<polygon fill="#000000" stroke="#000000" points="725.0933,-432.3028 734.485,-426.6418 730.0576,-431.7062 735.0219,-431.1096 735.0219,-431.1096 735.0219,-431.1096 730.0576,-431.7062 735.5588,-435.5775 725.0933,-432.3028 725.0933,-432.3028"/>
<text text-anchor="middle" x="961.0562" y="-225" font-family="Helvetica,sans-Serif" font-size="10.00" fill="#000000">[voltar]</text>
</g>
<!-- A5&#45;&gt;A2 -->
<g id="edge30" class="edge">
<title>A5&#45;&gt;A2</title>
<path fill="none" stroke="#000000" d="M544.564,-23.3422C606.1583,-33.0367 727.0472,-55.2153 758.0547,-84 890.8884,-207.3116 859.6825,-234.4217 816.0547,-288 785.1281,-325.9802 650.018,-342.7795 565.8628,-349.6731"/>
<polygon fill="#000000" stroke="#000000" points="555.8629,-350.4654 565.4762,-345.1895 560.8473,-350.0705 565.8317,-349.6755 565.8317,-349.6755 565.8317,-349.6755 560.8473,-350.0705 566.1872,-354.1614 555.8629,-350.4654 555.8629,-350.4654"/>
<text text-anchor="middle" x="877.7242" y="-183" font-family="Helvetica,sans-Serif" font-size="10.00" fill="#000000">[iniciarJogo]</text>
</g>
<!-- A5&#45;&gt;A3 -->
<g id="edge31" class="edge">
<title>A5&#45;&gt;A3</title>
<path fill="none" stroke="#000000" d="M471.4163,-24.7759C386.7662,-41.195 181.495,-85.6369 137.6977,-138 113.4144,-167.0326 111.2787,-212.6015 112.9327,-241.8829"/>
<polygon fill="#000000" stroke="#000000" points="113.6794,-251.8731 108.4464,-242.2364 113.3067,-246.887 112.9339,-241.9009 112.9339,-241.9009 112.9339,-241.9009 113.3067,-246.887 117.4214,-241.5654 113.6794,-251.8731 113.6794,-251.8731"/>
<text text-anchor="middle" x="172.2332" y="-141" font-family="Helvetica,sans-Serif" font-size="10.00" fill="#000000">[continuarJogo]</text>
</g>
<!-- A5&#45;&gt;A4 -->
<g id="edge32" class="edge">
<title>A5&#45;&gt;A4</title>
<path fill="none" stroke="#000000" d="M532.8799,-36.192C539.0073,-41.4679 545.1985,-47.5583 550.0547,-54 554.6831,-60.1396 558.6402,-67.4087 561.8691,-74.4081"/>
<polygon fill="#000000" stroke="#000000" points="565.8154,-83.6541 557.7511,-76.2233 563.8527,-79.0555 561.8899,-74.4568 561.8899,-74.4568 561.8899,-74.4568 563.8527,-79.0555 566.0287,-72.6903 565.8154,-83.6541 565.8154,-83.6541"/>
<text text-anchor="middle" x="582.3352" y="-57" font-family="Helvetica,sans-Serif" font-size="10.00" fill="#000000">[verReplay]</text>
</g>
<!-- A6&#45;&gt;A2 -->
<g id="edge27" class="edge">
<title>A6&#45;&gt;A2</title>
<path fill="none" stroke="#000000" d="M283.9212,-189.4114C358.9796,-195.9803 500.7176,-213.3063 530.0547,-252 546.9307,-274.2583 532.6783,-305.4745 517.9953,-327.4958"/>
<polygon fill="#000000" stroke="#000000" points="512.197,-335.7369 514.271,-324.9689 515.0742,-331.6476 517.9513,-327.5583 517.9513,-327.5583 517.9513,-327.5583 515.0742,-331.6476 521.6317,-330.1477 512.197,-335.7369 512.197,-335.7369"/>
<text text-anchor="middle" x="563.7242" y="-267" font-family="Helvetica,sans-Serif" font-size="10.00" fill="#000000">[iniciarJogo]</text>
</g>
<!-- A6&#45;&gt;A3 -->
<g id="edge25" class="edge">
<title>A6&#45;&gt;A3</title>
<path fill="none" stroke="#000000" d="M190.3953,-194.3349C171.866,-199.6335 151.5122,-208.2073 136.8157,-222 130.9897,-227.4677 126.7158,-234.8482 123.6155,-242.1805"/>
<polygon fill="#000000" stroke="#000000" points="120.0795,-251.9648 119.2463,-241.0306 121.779,-247.2624 123.4784,-242.5601 123.4784,-242.5601 123.4784,-242.5601 121.779,-247.2624 127.7105,-244.0895 120.0795,-251.9648 120.0795,-251.9648"/>
<text text-anchor="middle" x="193.1742" y="-225" font-family="Helvetica,sans-Serif" font-size="10.00" fill="#000000">[enviarRespostaMinijogo]</text>
</g>
<!-- A6&#45;&gt;A3 -->
<g id="edge28" class="edge">
<title>A6&#45;&gt;A3</title>
<path fill="none" stroke="#000000" d="M248.4991,-204.378C252.9149,-214.0154 255.5281,-225.5415 249.0547,-234 241.1588,-244.3173 216.0184,-252.3605 189.6892,-258.202"/>
<polygon fill="#000000" stroke="#000000" points="179.5735,-260.3331 188.4309,-253.8682 184.4661,-259.3023 189.3587,-258.2715 189.3587,-258.2715 189.3587,-258.2715 184.4661,-259.3023 190.2864,-262.6748 179.5735,-260.3331 179.5735,-260.3331"/>
<text text-anchor="middle" x="287.2332" y="-225" font-family="Helvetica,sans-Serif" font-size="10.00" fill="#000000">[continuarJogo]</text>
</g>
<!-- A6&#45;&gt;A4 -->
<g id="edge29" class="edge">
<title>A6&#45;&gt;A4</title>
<path fill="none" stroke="#000000" d="M283.7557,-169.2777C312.7759,-159.2925 350.9997,-146.8698 385.4937,-138 427.3983,-127.2246 475.3386,-118.0403 512.1285,-111.6454"/>
<polygon fill="#000000" stroke="#000000" points="522.1951,-109.9167 513.1011,-116.0444 517.2673,-110.763 512.3394,-111.6093 512.3394,-111.6093 512.3394,-111.6093 517.2673,-110.763 511.5777,-107.1742 522.1951,-109.9167 522.1951,-109.9167"/>
<text text-anchor="middle" x="411.3352" y="-141" font-family="Helvetica,sans-Serif" font-size="10.00" fill="#000000">[verReplay]</text>
</g>
<!-- A6&#45;&gt;A6 -->
<g id="edge26" class="edge">
<title>A6&#45;&gt;A6</title>
<path fill="none" stroke="#000000" d="M283.6459,-193.6827C294.1559,-192.9906 301.8432,-190.4297 301.8432,-186 301.8432,-183.1622 298.6883,-181.0914 293.6575,-179.7875"/>
<polygon fill="#000000" stroke="#000000" points="283.6459,-178.3173 294.1936,-175.3181 288.5928,-179.0438 293.5398,-179.7703 293.5398,-179.7703 293.5398,-179.7703 288.5928,-179.0438 292.8859,-184.2226 283.6459,-178.3173 283.6459,-178.3173"/>
<text text-anchor="middle" x="357.9627" y="-183" font-family="Helvetica,sans-Serif" font-size="10.00" fill="#000000">[enviarRespostaMinijogo]</text>
</g>
</g>
</svg>
